<?xml version="1.0" encoding="UTF-8"?>
<svg id="Layer_2" data-name="Layer 2" xmlns="http://www.w3.org/2000/svg" viewBox="0 0 1000 1000">
  <defs>
    <style>
      .cls-1 {
        fill: #60b15a;
        stroke-width: 0px;
      }
    </style>
  </defs>
  <g id="Group_2558" data-name="Group 2558">
    <g id="Group_2557" data-name="Group 2557">
      <path id="Path_8703" data-name="Path 8703" class="cls-1" d="M339.1,571.43c-28.04,0-46.1-22.17-46.1-50.84s18.23-50.04,45.75-50.04c16.92,0,25.5,8.85,28.04,15.34v-12.52h22.17v78.18c0,7.89.79,15.51.96,17.44h-21.82c-.66-4.55-.98-9.15-.96-13.76-5.33,10.46-16.32,16.81-28.04,16.21M341.65,551.8c14.9,0,25.33-12.79,25.33-31.2s-10.25-30.23-25.33-30.23-25.94,11.74-25.94,30.23,9.99,31.2,25.94,31.2M473.98,495.88c-2.47-.37-4.96-.58-7.45-.61-17.7,0-25.68,10.17-25.68,28.04v45.57h-22.78v-95.61h22.17v15.34c5.02-10.61,15.97-17.13,27.69-16.48,2.03.02,4.05.23,6.05.61v23.14ZM576.68,541.63c-5.08,16.65-20.24,30.23-43.2,30.23-25.94,0-48.9-18.84-48.9-51.27,0-30.23,22.35-50.29,46.53-50.29,29.45,0,46.71,19.46,46.71,49.69.1,2.44-.11,4.88-.61,7.27h-69.93c.37,14.08,12.03,25.23,26.11,24.98,10.92.84,20.91-6.12,23.92-16.65l19.37,6.04ZM554.86,510.6c-.35-11.22-7.89-21.21-23.57-21.21-12.19-.25-22.45,9.05-23.4,21.21h46.97ZM684.19,541.63c-5.08,16.65-20.24,30.23-43.2,30.23-25.94,0-48.9-18.84-48.9-51.27,0-30.23,22.35-50.29,46.53-50.29,29.45,0,46.71,19.46,46.71,49.69.1,2.44-.11,4.88-.61,7.27h-69.92c.37,14.08,12.03,25.23,26.11,24.98,10.92.84,20.91-6.12,23.92-16.65l19.35,6.04ZM662.46,510.6c-.35-11.22-7.89-21.21-23.57-21.21-12.19-.25-22.45,9.05-23.4,21.21h46.97ZM707.16,568.88v-95.61h21.82v12.18c6.18-9.57,16.92-15.22,28.31-14.9,12.09-.67,23.4,6,28.66,16.92,6.31-11.05,18.32-17.6,31.02-16.92,17.26,0,33.74,10.95,33.74,36.28v62.04h-22v-58.27c0-11.22-5.7-19.63-18.48-19.63-10.97,0-19.86,8.91-19.85,19.88,0,.44.02.88.05,1.33v56.7h-22.35v-58.27c0-10.95-5.52-19.63-18.48-19.63-12.18,0-19.8,9.03-19.8,21.21v56.7h-22.62Z"/>
      <path id="Path_8704" data-name="Path 8704" class="cls-1" d="M184.35,434.1c8.22,0,14.89,6.65,14.9,14.87,0,0,0,.02,0,.03,0,8.18-6.63,14.81-14.81,14.81s-14.81-6.63-14.81-14.81h0c0-8.16,6.57-14.8,14.72-14.9"/>
      <path id="Path_8705" data-name="Path 8705" class="cls-1" d="M218.87,549.25c-22.65.32-42.01-16.23-45.22-38.65h-24.36c3.67,35.43,33.98,62.08,69.58,61.17,35.49,0,56.7-22.61,63.01-46.19l-21.56-7.1c-5.01,18.63-22.17,31.36-41.45,30.76"/>
      <path id="Path_8706" data-name="Path 8706" class="cls-1" d="M276.45,459.16c-8.54-16.46-24.31-27.95-42.6-31.02l-5.16,21.73c12.67,2.13,23.33,10.69,28.13,22.61l19.63-13.32Z"/>
    </g>
  </g>
</svg>