<?xml version="1.0" encoding="utf-8"?>
<!-- Generator: Adobe Illustrator 28.0.0, SVG Export Plug-In . SVG Version: 6.00 Build 0)  -->
<svg version="1.1" id="Layer_1" xmlns="http://www.w3.org/2000/svg" xmlns:xlink="http://www.w3.org/1999/xlink" x="0px" y="0px"
	 viewBox="0 0 1000 1000" style="enable-background:new 0 0 1000 1000;" xml:space="preserve">
<style type="text/css">
	.st0{fill:#00BF6F;}
</style>
<g>
	<g>
		<path d="M600.6,571.1c0-3.4-2.7-6.1-6.1-6.1h-0.7c-3.3,0-6.1,2.7-6.1,6.1v16.3c0,14.8-5.8,20.5-20.6,20.5s-22.5-5.8-22.5-23.1
			v-9.3c0-3.4-2.7-6.1-6.1-6.1H538c-3.3,0-6.1,2.7-6.1,6.1v8c0,18.6-6.4,24.3-21.2,24.3c-14.8,0-21.9-5.8-21.9-23.1v-8.6
			c0-3.4-2.7-6.1-6.1-6.1h-0.6c-3.4,0-6.1,2.7-6.1,6.1v11.2c0,14.8-4.5,18.6-17.9,18.6h-40.7v-17.9c0-18.6-13.5-32.7-30.1-32.7
			c-14.7,0-32,11.5-32,32.7c0,19.2,14.1,32.7,32,32.7h15.9c-2.8,11.2-10.3,14.8-25.5,14.8h-9.2c-3.8,0-6.9,3.1-6.9,6.9v0.9
			c0,3.8,3.1,6.9,6.9,6.9h9.2c22,0,34.5-9.8,38.4-29.5h42c10.8,0,19.2-3.7,24.5-10.8c5.6,8.3,14.3,12.7,28.2,12.7
			c13.9,0,22.2-4.5,27.7-13.2c5.7,8.6,14.8,13.2,28.9,13.2c21.2,0,33.4-14.1,33.4-35.2L600.6,571.1L600.6,571.1z M404.5,606h-17.3
			c-12.2,0-19.2-6.4-19.2-17.9s9-17.9,19.2-17.9s17.3,6.4,17.3,17.9V606z"/>
		<path d="M331.7,537.1H331c-3.4,0-6.1,2.7-6.1,6.1v63.1c0,23.7-4.5,28.8-22.4,28.8c-19.6,0-25.4-10.4-22.2-32.7
			c0.5-3.2-1.6-6.3-4.8-6.9l-0.9-0.2c-3.4-0.7-6.8,1.7-7.2,5.1c-3.8,28.3,7,49.4,35.1,49.4c25.6,0,35.2-14.1,35.2-43.6v-63.1
			C337.7,539.7,335,537,331.7,537.1L331.7,537.1z"/>
		<path d="M723.5,554.1c-17.7,0-32.9,14.4-33.3,33.3h0c0,11.5-5.8,18.6-17.9,18.6h-11.7c-11.5,0-18.6-7.7-18.6-18.6v-16.3
			c0-3.4-2.7-6.1-6.1-6.1h-0.6c-3.4,0-6.1,2.7-6.1,6.1V606c0,22.4-9.6,29.5-26.9,29.5c-3.5,0-6.4,2.9-6.4,6.4v1.9
			c0,3.5,2.9,6.4,6.4,6.4c20.4,0,36.4-11.7,39.3-36.3c5.2,4.2,11.8,6.8,19.1,6.8h11.7c19,0,30.5-15,30.7-32.7l0,0
			c0-11.5,8.3-19.2,20.5-19.2c10.7,0,19.4,9,19.2,19.7c-0.2,11.9-7.8,18.7-19.2,18.7c-2.5,0-4.8-0.3-7-0.9c-2.7-0.7-5.6,0.4-7.3,2.7
			c-2.9,3.9-1.3,9.5,3.3,11.1c3.5,1.2,7.2,1.8,11,1.8c17.3,0,32.1-14.1,32.1-34C755.5,568.2,740.7,554.1,723.5,554.1L723.5,554.1z"
			/>
	</g>
	<g>
		<path d="M336.5,682.6h-1c-2.5,0-4.6,1.2-5.9,3.2l-24.7,36.7l-24.7-36.7c-1.4-2.1-3.5-3.2-5.9-3.2h-1c-3.5,0-6.5,2.9-6.5,6.4v66.3
			c0,3.6,2.8,6.4,6.4,6.4s6.5-2.8,6.5-6.4V708l19.6,28.3c1.4,2,3.3,3.1,5.5,3.1c2.2,0,4-1.1,5.4-3.1l19.6-28.4v47.4
			c0,3.6,3,6.6,6.6,6.6c3.6,0,6.5-3,6.5-6.6v-66.2C343,685.6,340.1,682.6,336.5,682.6L336.5,682.6z"/>
		<path d="M422.5,707c0-6.3-2.3-12.1-6.4-16.2c-5.2-5.2-13.3-8.1-22.7-8.1h-27.1c-3.5,0-6.5,3-6.5,6.6v66c0,3.6,3,6.6,6.5,6.6
			s6.6-2.9,6.6-6.6V695h19.9c10.7,0,16.6,4.4,16.6,12.5s-8,11.9-14.9,12.7c-1.6-0.2-3.2,0.3-4.4,1.2c-1.4,1.1-2.3,2.6-2.5,4.4
			c-0.2,1.7,0.2,3.5,1.3,4.9l21.2,28.1c1.6,2.1,3.5,3.2,5.8,3.2c3.5,0,6.6-3,6.6-6.5c0-1.1-0.3-2.2-0.9-3.2h0.1L404.5,730
			C415.9,726.6,422.5,718.3,422.5,707L422.5,707z"/>
		<path d="M461.3,694.7c6.1,0,14.2,2.9,20.3,7.3c1.1,0.8,2.3,1.1,3.7,1.1c3.5,0,6.3-2.8,6.3-6.3c0-2.8-1.9-4.6-2.8-5.2
			c-7.9-5.7-18.1-9-27.3-9c-15.2,0-26.3,9.4-26.3,22.3c0,14.5,10.5,19.8,26.3,23.2c15.8,3.3,17.1,6.9,17.1,11.7
			c0,2.4-0.9,4.5-2.6,6.1c-2.5,2.5-6.5,3.8-11.3,3.8c-7.4,0-13.9-2.3-18.9-6.7c-1-1-2.6-1.6-4.1-1.6c-3.5,0-6.3,2.8-6.3,6.4
			c0,2,1,3.9,2.5,5c7.8,6.1,15.8,9,25.4,9c0.4,0,0.8,0,1.1,0c16.2-0.4,27.1-9.7,27.1-23c0-12.1-7.6-18.9-25.6-22.8
			c-16.6-3.5-17.9-7.2-17.9-12C448.1,698.5,453.5,694.7,461.3,694.7L461.3,694.7z"/>
		<path d="M545.5,682.6c-22.5,0-40.2,17.4-40.2,39.6v0.2c0,22.5,17.2,39.4,39.9,39.4c22.8,0,40.2-17.5,40.2-39.8
			C585.5,699.8,568.3,682.7,545.5,682.6L545.5,682.6z M572.1,722.2v0.2c0,15.5-11.4,27.2-26.6,27.2s-26.8-11.8-26.8-27.6
			s11.4-27.2,26.6-27.2C560.5,694.9,572.1,706.7,572.1,722.2z"/>
		<path d="M638.7,682.6c-22.5,0-40.2,17.4-40.2,39.6v0.2c0,22.5,17.2,39.4,39.9,39.4s40.2-17.5,40.2-39.8
			C678.7,699.8,661.5,682.7,638.7,682.6L638.7,682.6z M665.4,722.2v0.2c0,15.5-11.4,27.2-26.6,27.2s-26.8-11.8-26.8-27.6
			s11.4-27.2,26.6-27.2C653.7,694.9,665.4,706.7,665.4,722.2z"/>
		<path d="M749.1,749.3h-43.3v-60.5c0-3.6-2.9-6.6-6.6-6.6c-3.6,0-6.5,3-6.5,6.6v66.3c0,3.6,3,6.6,6.5,6.6h49.9
			c3.5,0,6.3-2.8,6.3-6.2C755.4,752,752.5,749.3,749.1,749.3L749.1,749.3z"/>
	</g>
</g>
<path class="st0" d="M625.6,425.6c-9,0-16.3-7.3-16.3-16.3s7.3-16.3,16.3-16.3c9,0,16.3,7.3,16.3,16.3
	C641.9,418.3,634.6,425.6,625.6,425.6 M590.6,299.2c-9.9,0-17.9-8-17.9-17.9c0-9.9,8-17.9,17.9-17.9c9.9,0,17.9,8,17.9,17.9
	C608.5,291.2,600.5,299.2,590.6,299.2 M509.8,488.1c-9,0-16.3-7.3-16.3-16.3s7.3-16.3,16.3-16.3s16.3,7.3,16.3,16.3
	S518.8,488.1,509.8,488.1 M429,299.2c-9.9,0-17.9-8-17.9-17.9c0-9.9,8-17.9,17.9-17.9c9.9,0,17.9,8,17.9,17.9
	C446.9,291.2,438.9,299.2,429,299.2 M394,425.6c-9,0-16.3-7.3-16.3-16.3S385,393,394,393c9,0,16.3,7.3,16.3,16.3
	C410.3,418.3,403,425.6,394,425.6 M629.5,371.1c-1.8-0.2-3.2-1.5-3.7-3.1l-13.1-46.8c-0.5-1.8,0.1-3.7,1.6-4.7
	c12.5-8.5,20.3-23.5,18.3-40.2c-2.3-19.3-17.9-34.8-37.2-37c-25.6-2.8-47.2,17.1-47.2,42.1c0,12.5,5.5,23.8,14.2,31.5
	c1.4,1.2,1.8,3.2,1,4.9l-48.3,112.9c-0.7,1.6-2.4,2.7-4.1,2.6h-2c-1.8,0-3.4-1-4.1-2.7l-48.4-113.1c-0.7-1.7-0.4-3.7,1-4.9
	c10-9.1,15.6-22.8,13.5-37.7c-3.6-25.3-25.9-34.8-37.1-35.7c-25.6-2.1-47.2,17.1-47.2,42.1c0,14.7,7.5,27.6,18.8,35.2
	c1.5,1,2.2,3,1.7,4.8l-13.1,46.6c-0.5,1.7-1.9,3-3.7,3.2c-20.1,1.9-35.8,19.2-34.9,40c0.8,19.7,17.2,36,36.9,36.8
	c22,0.9,40-16.7,40-38.5c0-12.6-6.1-23.8-15.5-30.8c-1.4-1.1-2-2.9-1.5-4.6l13.5-48c0.4-1.4,1.6-2.3,3-2.4h0.1
	c1.5-0.1,2.8,0.6,3.4,2l48.6,113.6c0.7,1.6,0.3,3.6-1,4.8c-7.5,7.2-12.1,17.4-11.9,28.6c0.4,20.1,16.8,36.9,36.9,37.7
	c22,0.9,40.1-16.7,40.1-38.5c0-10-3.8-19.1-10.1-26c-0.6-0.6-3.4-3.4-2.5-5.8c6.3-17.4,48.6-114.6,48.6-114.6c0.6-1.3,1.9-2.1,3.4-2
	h0.1c1.4,0.1,2.7,1,3.1,2.4l13.4,47.7c0.5,1.7-0.1,3.6-1.5,4.6c-9.9,7.3-16.2,19.1-15.7,32.4c0.7,19.9,17.1,36.3,37,37.1
	c21.9,0.8,40-16.7,40-38.5C664.1,389.4,648.9,373,629.5,371.1"/>
</svg>
